<?xml version="1.0" encoding="UTF-8" standalone="no"?>
<!-- Generator: Gravit.io -->
<svg xmlns="http://www.w3.org/2000/svg" xmlns:xlink="http://www.w3.org/1999/xlink" style="isolation:isolate" viewBox="27.154 27.647 146.693 139.959" width="146.693pt" height="139.959pt"><defs><clipPath id="_clipPath_vkO1N7p0BYFjEJl4ngEIU20DTR1olb7T"><rect x="27.154" y="27.647" width="146.693" height="139.959"/></clipPath></defs><g clip-path="url(#_clipPath_vkO1N7p0BYFjEJl4ngEIU20DTR1olb7T)"><g><polygon points="146.751,134.851,54.251,134.851,100.501,54.744" fill="rgb(93,93,93)"/><circle vector-effect="non-scaling-stroke" cx="100.50064731531295" cy="108.17513011181512" r="53.43154824173858" fill="none" stroke-width="12" stroke="rgb(255,255,255)" stroke-linejoin="miter" stroke-linecap="square" stroke-miterlimit="3"/><circle vector-effect="non-scaling-stroke" cx="54.250647315312364" cy="134.85093172013765" r="27.09631285426783" fill="rgb(0,0,255)"/><clipPath id="_clipPath_cSr4gaHbVJyk3Vnkzlat7DA5z537qbke"><circle vector-effect="non-scaling-stroke" cx="54.250647315312364" cy="134.85093172013765" r="27.09631285426783" fill="rgb(0,0,255)"/></clipPath><g clip-path="url(#_clipPath_cSr4gaHbVJyk3Vnkzlat7DA5z537qbke)"><rect x="40.479" y="121.087" width="27.567" height="27.567" transform="matrix(-0.5,-0.866,0.866,-0.5,-35.408,249.299)" fill="rgb(255,255,255)"/></g><circle vector-effect="non-scaling-stroke" cx="146.75064731531296" cy="134.85093172013734" r="27.096312854267836" fill="rgb(0,255,0)"/><clipPath id="_clipPath_RKw93nqh0qMf7muqnVkuiHbWogBenRrV"><circle vector-effect="non-scaling-stroke" cx="146.75064731531296" cy="134.85093172013734" r="27.096312854267836" fill="rgb(0,255,0)"/></clipPath><g clip-path="url(#_clipPath_RKw93nqh0qMf7muqnVkuiHbWogBenRrV)"><polygon points="163.076,144.276,146.751,153.702,130.425,144.276,130.425,125.425,146.751,116,163.076,125.425" fill="rgb(255,255,255)"/></g><circle vector-effect="non-scaling-stroke" cx="100.50064731531259" cy="54.74358187007678" r="27.096312854267836" fill="rgb(255,0,0)"/><clipPath id="_clipPath_Yd4XMvZt6fL9WKTksXhBfH7jeLDNZDCk"><circle vector-effect="non-scaling-stroke" cx="100.50064731531259" cy="54.74358187007678" r="27.096312854267836" fill="rgb(255,0,0)"/></clipPath><g clip-path="url(#_clipPath_Yd4XMvZt6fL9WKTksXhBfH7jeLDNZDCk)"><polygon points="100.501,34.059,118.414,65.086,82.588,65.086" fill="rgb(255,255,255)"/></g></g></g></svg>