<?xml version="1.0" encoding="UTF-8" standalone="no"?>
<!-- Generator: Gravit.io -->
<svg xmlns="http://www.w3.org/2000/svg" xmlns:xlink="http://www.w3.org/1999/xlink" style="isolation:isolate" viewBox="470 695 137 168" width="137pt" height="168pt"><defs><clipPath id="_clipPath_jdfOtcaRuXaOCmP84cRBWNlNyBJRi6RE"><rect x="470" y="695" width="137" height="168"/></clipPath></defs><g clip-path="url(#_clipPath_jdfOtcaRuXaOCmP84cRBWNlNyBJRi6RE)"><path d=" M 509.5 759 L 567.5 759 L 567.5 744 C 567.5 736.31 564.44 728.93 559.01 723.49 C 553.57 718.06 546.19 715 538.5 715 C 530.81 715 523.43 718.06 517.99 723.49 C 512.56 728.93 509.5 736.31 509.5 744 L 509.5 759 L 509.5 759 L 509.5 759 Z  M 489.5 759 L 470 759 L 470 863 L 607 863 L 607 759 L 587.5 759 L 587.5 744 C 587.5 716.956 565.544 695 538.5 695 C 511.456 695 489.5 716.956 489.5 744 L 489.5 759 L 489.5 759 L 489.5 759 Z  M 545.867 813.367 C 550.408 810.794 553.476 805.917 553.476 800.329 C 553.476 792.063 546.765 785.353 538.5 785.353 C 530.235 785.353 523.524 792.063 523.524 800.329 C 523.524 805.917 526.592 810.794 531.133 813.367 L 531.012 813.744 L 523.524 837 L 538.5 837 L 553.476 837 L 545.988 813.744 L 545.867 813.367 Z " fill-rule="evenodd" fill="rgb(0,0,0)"/></g></svg>