<?xml version="1.0" encoding="UTF-8" standalone="no"?>
<!-- Generator: Gravit.io -->
<svg xmlns="http://www.w3.org/2000/svg" xmlns:xlink="http://www.w3.org/1999/xlink" style="isolation:isolate" viewBox="422.853 669.706 231.294 231.294" width="231.294pt" height="231.294pt"><defs><clipPath id="_clipPath_GNTuxpcpaeoEaywaAh7jMVzupaNjUBTp"><rect x="422.853" y="669.706" width="231.294" height="231.294"/></clipPath></defs><g clip-path="url(#_clipPath_GNTuxpcpaeoEaywaAh7jMVzupaNjUBTp)"><g opacity="0"><mask id="_mask_C9XzNuqusLz01RjghEAAAd7BL3t6Ngok"><rect x="422.853" y="669.706" width="231.294" height="231.294" fill="white" stroke="none"/></mask><rect x="422.853" y="669.706" width="231.294" height="231.294" transform="matrix(1,0,0,1,0,0)" fill="rgb(235,235,235)"/><rect x="422.853" y="669.706" width="231.294" height="231.294" transform="matrix(1,0,0,1,0,0)" fill="rgb(235,235,235)" mask="url(#_mask_C9XzNuqusLz01RjghEAAAd7BL3t6Ngok)" vector-effect="non-scaling-stroke" stroke-width="2" stroke="rgb(0,0,0)" stroke-linejoin="miter" stroke-linecap="square" stroke-miterlimit="2"/></g><path d=" M 509.5 759 L 567.5 759 L 567.5 744 C 567.5 736.31 564.44 728.93 559.01 723.49 C 553.57 718.06 546.19 715 538.5 715 C 530.81 715 523.43 718.06 517.99 723.49 C 512.56 728.93 509.5 736.31 509.5 744 L 509.5 759 L 509.5 759 L 509.5 759 Z  M 489.5 759 L 470 759 L 470 863 L 607 863 L 607 759 L 587.5 759 L 587.5 744 C 587.5 716.956 565.544 695 538.5 695 C 511.456 695 489.5 716.956 489.5 744 L 489.5 759 L 489.5 759 L 489.5 759 Z  M 545.867 813.367 C 550.408 810.794 553.476 805.917 553.476 800.329 C 553.476 792.063 546.765 785.353 538.5 785.353 C 530.235 785.353 523.524 792.063 523.524 800.329 C 523.524 805.917 526.592 810.794 531.133 813.367 L 531.012 813.744 L 523.524 837 L 538.5 837 L 553.476 837 L 545.988 813.744 L 545.867 813.367 Z " fill-rule="evenodd" fill="rgb(0,0,0)"/><path d=" M 509.5 753 L 509.5 753 L 509.5 744 C 509.5 736.31 512.56 728.93 517.99 723.49 C 523.43 718.06 530.81 715 538.5 715 C 546.19 715 553.57 718.06 559.01 723.49 C 564.44 728.93 567.5 736.31 567.5 744 L 567.5 753 L 509.5 753 L 509.5 753 Z  M 489.5 759 L 489.5 759 L 489.5 744 C 489.5 716.956 511.456 695 538.5 695 C 565.544 695 587.5 716.956 587.5 744 L 587.5 759 L 607 759 L 607 863 L 470 863 L 470 759 L 489.5 759 L 489.5 759 Z  M 545.988 813.744 L 553.476 837 L 538.5 837 L 523.524 837 L 531.012 813.744 L 531.133 813.367 C 526.592 810.794 523.524 805.917 523.524 800.329 C 523.524 792.063 530.235 785.353 538.5 785.353 C 546.765 785.353 553.476 792.063 553.476 800.329 C 553.476 805.917 550.408 810.794 545.867 813.367 L 545.988 813.744 Z  M 503.5 759 L 503.5 744 C 503.5 744 503.5 744 503.5 744 C 503.5 734.72 507.19 725.81 513.75 719.25 C 520.31 712.69 529.22 709 538.5 709 C 547.78 709 556.69 712.69 563.25 719.25 C 569.81 725.81 573.5 734.72 573.5 744 C 573.5 744 573.5 744 573.5 744 L 573.5 759 L 503.5 759 Z  M 483.5 753 L 483.5 744 C 483.5 729.42 489.3 715.42 499.61 705.11 C 509.92 694.8 523.92 689 538.5 689 C 553.08 689 567.08 694.8 577.39 705.11 C 587.7 715.42 593.5 729.42 593.5 744 L 593.5 753 L 613 753 L 613 869 L 464 869 L 464 753 L 483.5 753 Z  M 552.89 815.59 L 561.71 843 L 538.5 843 L 515.29 843 L 524.11 815.59 C 519.91 811.63 517.53 806.1 517.52 800.33 C 517.52 794.77 519.74 789.43 523.67 785.5 C 527.6 781.56 532.94 779.35 538.5 779.35 L 538.5 779.35 L 538.5 779.35 C 544.06 779.35 549.4 781.56 553.33 785.5 C 557.26 789.43 559.48 794.77 559.48 800.33 C 559.47 806.1 557.09 811.63 552.89 815.59 Z " fill-rule="evenodd" fill="rgb(255,255,255)"/></g></svg>