<?xml version="1.0" encoding="UTF-8" standalone="no"?>
<!-- Generator: Gravit.io -->
<svg xmlns="http://www.w3.org/2000/svg" xmlns:xlink="http://www.w3.org/1999/xlink" style="isolation:isolate" viewBox="212 138.112 242 242" width="242pt" height="242pt"><defs><clipPath id="_clipPath_pzORJZRVt8g4CDdIOcj5hqMG0cedAMwA"><rect x="212" y="138.112" width="242" height="242"/></clipPath></defs><g clip-path="url(#_clipPath_pzORJZRVt8g4CDdIOcj5hqMG0cedAMwA)"><g><circle vector-effect="non-scaling-stroke" cx="332.99999999999994" cy="259.1117284279293" r="93.5" fill="none" stroke-width="14" stroke="rgb(255,255,255)" stroke-linejoin="miter" stroke-linecap="square" stroke-miterlimit="3"/><circle vector-effect="non-scaling-stroke" cx="239.5" cy="259.617245801577" r="27.5" fill="rgb(255,255,255)"/><circle vector-effect="non-scaling-stroke" cx="426.49999999999994" cy="259.617245801577" r="27.5" fill="rgb(255,255,255)"/><circle vector-effect="non-scaling-stroke" cx="332.9999999999999" cy="165.61172842792928" r="27.5" fill="rgb(255,255,255)"/><circle vector-effect="non-scaling-stroke" cx="332.9999999999999" cy="352.6117284279293" r="27.5" fill="rgb(255,255,255)"/><circle vector-effect="non-scaling-stroke" cx="239.5" cy="259.617245801577" r="14.5" fill="rgb(166,166,166)"/><circle vector-effect="non-scaling-stroke" cx="426.5" cy="259.617245801577" r="14.5" fill="rgb(166,166,166)"/><circle vector-effect="non-scaling-stroke" cx="333" cy="165.61172842792928" r="14.5" fill="rgb(166,166,166)"/><circle vector-effect="non-scaling-stroke" cx="333" cy="352.6117284279293" r="14.5" fill="rgb(166,166,166)"/><circle vector-effect="non-scaling-stroke" cx="333" cy="259.11172842792934" r="49.35689438778411" fill="rgb(255,255,255)"/><clipPath id="_clipPath_wKSLQA4Ftwm6j1DMWlw1XCHhTTWcdN0X"><circle vector-effect="non-scaling-stroke" cx="333" cy="259.11172842792934" r="49.35689438778411" fill="rgb(255,255,255)"/></clipPath><g clip-path="url(#_clipPath_wKSLQA4Ftwm6j1DMWlw1XCHhTTWcdN0X)"><circle vector-effect="non-scaling-stroke" cx="333" cy="259.11172842792934" r="41.75903121320397" fill="rgb(255,255,255)"/><clipPath id="_clipPath_V1VzYmwo8AUmAiP8atoRDrlo4kxzJjl5"><circle vector-effect="non-scaling-stroke" cx="333" cy="259.11172842792934" r="41.75903121320397" fill="rgb(255,255,255)"/></clipPath><g clip-path="url(#_clipPath_V1VzYmwo8AUmAiP8atoRDrlo4kxzJjl5)"><g><path d=" M 291.241 242.296 L 291.241 242.296 Q 291.241 230.178 292.489 222.825 L 292.489 222.825 L 292.489 222.825 Q 293.736 215.472 295.908 215.472 L 295.908 215.472 L 295.908 215.472 Q 298.079 215.472 300.358 217.923 L 300.358 217.923 L 299.878 239.709 L 299.878 239.709 Q 297.503 236.577 296.615 236.577 L 296.615 236.577 L 296.615 236.577 Q 295.488 236.577 295.488 241.751 L 295.488 241.751 L 295.488 241.751 Q 295.488 243.794 296.027 245.7 L 296.027 245.7 L 296.027 245.7 Q 296.567 247.606 297.335 249.717 L 297.335 249.717 L 297.335 249.717 Q 298.103 251.827 298.871 254.755 L 298.871 254.755 L 298.871 254.755 Q 299.638 257.682 300.178 263.129 L 300.178 263.129 L 300.178 263.129 Q 300.718 268.575 300.718 275.655 L 300.718 275.655 L 300.718 275.655 Q 300.718 288.59 299.494 295.671 L 299.494 295.671 L 299.494 295.671 Q 298.271 302.751 296.027 302.751 L 296.027 302.751 L 296.027 302.751 Q 293.784 302.751 291.649 298.802 L 291.649 298.802 L 291.913 278.514 L 291.913 278.514 Q 294.48 282.736 295.488 282.736 L 295.488 282.736 L 295.488 282.736 Q 296.495 282.736 296.495 277.698 L 296.495 277.698 L 296.495 277.698 Q 296.495 275.11 295.956 272.932 L 295.956 272.932 L 295.956 272.932 Q 295.416 270.753 294.648 268.575 L 294.648 268.575 L 294.648 268.575 Q 293.88 266.396 293.1 263.537 L 293.1 263.537 L 293.1 263.537 Q 292.321 260.678 291.781 255.231 L 291.781 255.231 L 291.781 255.231 Q 291.241 249.785 291.241 242.296 L 291.241 242.296 Z  M 307.292 273.749 L 307.292 273.749 L 306.188 273.749 L 306.188 301.389 L 302.158 301.389 L 302.158 216.834 L 307.028 216.834 L 307.028 216.834 Q 309.595 216.834 310.843 223.506 L 310.843 223.506 L 310.843 223.506 Q 312.091 230.178 312.091 245.428 L 312.091 245.428 L 312.091 245.428 Q 312.091 260.678 310.915 267.213 L 310.915 267.213 L 310.915 267.213 Q 309.739 273.749 307.292 273.749 Z  M 307.748 255.367 L 307.748 255.367 L 307.748 255.367 Q 307.964 253.053 307.964 247.062 L 307.964 247.062 L 307.964 247.062 Q 307.964 241.07 307.724 238.62 L 307.724 238.62 L 307.724 238.62 Q 307.484 236.169 306.764 236.169 L 306.764 236.169 L 306.188 236.169 L 306.188 257.682 L 306.86 257.682 L 306.86 257.682 Q 307.532 257.682 307.748 255.367 Z  M 321.256 216.834 L 323.991 301.389 L 319.984 301.389 L 319.528 288.046 L 316.697 288.046 L 316.241 301.389 L 312.426 301.389 L 315.162 216.834 L 321.256 216.834 Z  M 317.225 272.115 L 319.072 272.115 L 318.233 241.888 L 318.065 241.888 L 317.225 272.115 Z  M 336.251 216.834 L 340.042 216.834 L 338.698 301.389 L 333.756 301.389 L 332.46 263.945 L 332.268 263.945 L 331.189 301.389 L 326.222 301.389 L 324.663 216.834 L 328.597 216.834 L 329.221 261.631 L 329.461 261.631 L 330.469 216.834 L 334.476 216.834 L 335.579 261.631 L 335.819 261.631 L 336.251 216.834 Z  M 352.446 216.834 L 352.446 301.389 L 348.511 301.389 L 345.416 262.039 L 345.224 262.039 L 345.224 301.389 L 341.577 301.389 L 341.577 216.834 L 345.632 216.834 L 348.583 257.41 L 348.775 257.41 L 348.775 216.834 L 352.446 216.834 Z  M 362.859 282.327 L 362.619 301.389 L 354.557 301.389 L 354.557 216.834 L 362.859 216.834 L 362.619 237.666 L 358.66 237.666 L 358.66 250.329 L 362.091 250.329 L 362.091 268.302 L 358.66 268.302 L 358.66 282.327 L 362.859 282.327 Z  M 374.447 243.658 L 374.447 243.658 L 374.447 243.658 Q 374.447 251.282 374.039 256.321 L 374.039 256.321 L 374.039 256.321 Q 373.631 261.358 372.768 265.443 L 372.768 265.443 L 374.759 301.389 L 370.32 301.389 L 368.833 270.89 L 368.281 270.89 L 368.281 301.389 L 364.25 301.389 L 364.25 216.834 L 369.817 216.834 L 369.817 216.834 Q 372.216 216.834 373.331 223.233 L 373.331 223.233 L 373.331 223.233 Q 374.447 229.633 374.447 243.658 Z  M 368.905 256.593 L 368.905 256.593 Q 369.529 256.593 369.793 254.55 L 369.793 254.55 L 369.793 254.55 Q 370.056 252.508 370.056 247.13 L 370.056 247.13 L 370.056 247.13 Q 370.056 241.751 369.793 239.641 L 369.793 239.641 L 369.793 239.641 Q 369.529 237.53 368.929 237.53 L 368.929 237.53 L 368.281 237.53 L 368.281 256.593 L 368.905 256.593 Z " fill="rgb(166,166,166)"/></g></g></g></g></g></svg>